<svg id="Capa_1" enable-background="new 0 0 512 512" height="512" viewBox="0 0 512 512" width="512" xmlns="http://www.w3.org/2000/svg" xmlns:xlink="http://www.w3.org/1999/xlink"><linearGradient id="SVGID_1_" gradientUnits="userSpaceOnUse" x1="256" x2="256" y1="450" y2="0"><stop offset="0" stop-color="#00b59c"/><stop offset="1" stop-color="#9cffac"/></linearGradient><linearGradient id="SVGID_2_" gradientUnits="userSpaceOnUse" x1="256" x2="256" y1="512" y2="90"><stop offset="0" stop-color="#c3ffe8"/><stop offset=".9973" stop-color="#f0fff4"/></linearGradient><g><g><g><path d="m256 0c-90.967 0-165 74.019-165 165 0 58.447 40.107 102.495 78.896 145.093 36.563 40.151 71.104 78.061 71.104 124.907 0 8.291 6.709 15 15 15s15-6.709 15-15c0-46.846 34.541-84.756 71.104-124.907 38.789-42.598 78.896-86.646 78.896-145.093 0-90.981-74.033-165-165-165z" fill="url(#SVGID_1_)"/></g></g><g><g><path d="m503.709 483.582-121-60c-4.219-2.109-9.199-2.109-13.418 0l-113.291 56.646-113.291-56.646c-4.219-2.109-9.199-2.109-13.418 0l-121 60c-7.412 3.706-10.4 12.715-6.709 20.127 3.721 7.427 12.686 10.356 20.127 6.709l114.291-56.646 113.291 56.646c4.219 2.109 9.199 2.109 13.418 0l113.291-56.646 114.291 56.646c7.585 3.741 16.473.579 20.127-6.709 3.691-7.412.703-16.421-6.709-20.127zm-318.314-247.977c2.93 2.93 6.768 4.395 10.605 4.395s7.676-1.465 10.605-4.395l64.395-64.394v53.789c0 8.291 6.709 15 15 15s15-6.709 15-15v-83.789l25.605-25.605c5.859-5.859 5.859-15.352 0-21.211s-15.352-5.859-21.211 0l-25.605 25.605h-83.789c-8.291 0-15 6.709-15 15s6.709 15 15 15h53.789l-53.789 53.789-19.395-19.395c-5.859-5.859-15.352-5.859-21.211 0s-5.859 15.352 0 21.211z" fill="url(#SVGID_2_)"/></g></g></g></svg>